<svg xmlns="http://www.w3.org/2000/svg" width="1200" height="675" viewBox="0 0 1200 675" role="img" aria-labelledby="title desc">
  <title id="title">Collections Intelligence Agent cover image</title>
  <desc id="desc">Cover graphic for a business-focused AI agent that analyzes AR aging and drafts collection communications.</desc>
  <rect width="1200" height="675" fill="#f6f7f2"/>
  <rect x="64" y="64" width="1072" height="547" rx="12" fill="#ffffff" stroke="#1f2a2e" stroke-width="2"/>
  <text x="104" y="150" font-family="Inter, Arial, sans-serif" font-size="54" font-weight="700" fill="#172126">Collections Intelligence Agent</text>
  <text x="106" y="200" font-family="Inter, Arial, sans-serif" font-size="25" fill="#46545a">Multi-agent accounts receivable analysis and draft collection workflow</text>

  <g transform="translate(104 285)">
    <rect width="230" height="126" rx="8" fill="#e6f2ef" stroke="#2e6f63" stroke-width="2"/>
    <text x="24" y="48" font-family="Inter, Arial, sans-serif" font-size="24" font-weight="700" fill="#173d36">ADK</text>
    <text x="24" y="82" font-family="Inter, Arial, sans-serif" font-size="22" fill="#173d36">Orchestrator</text>
  </g>

  <g transform="translate(415 250)">
    <rect width="265" height="86" rx="8" fill="#eef0fb" stroke="#4757a8" stroke-width="2"/>
    <text x="22" y="52" font-family="Inter, Arial, sans-serif" font-size="22" font-weight="700" fill="#253078">Financial Analyst</text>
  </g>

  <g transform="translate(415 370)">
    <rect width="265" height="86" rx="8" fill="#fff2dd" stroke="#aa6a20" stroke-width="2"/>
    <text x="22" y="52" font-family="Inter, Arial, sans-serif" font-size="22" font-weight="700" fill="#63390d">Communications</text>
  </g>

  <g transform="translate(775 285)">
    <rect width="250" height="126" rx="8" fill="#f4eeee" stroke="#8f3d45" stroke-width="2"/>
    <text x="24" y="48" font-family="Inter, Arial, sans-serif" font-size="24" font-weight="700" fill="#55232a">MCP Server</text>
    <text x="24" y="82" font-family="Inter, Arial, sans-serif" font-size="20" fill="#55232a">PII masking + tools</text>
  </g>

  <g transform="translate(374 492)">
    <rect width="348" height="58" rx="8" fill="#172126"/>
    <text x="174" y="38" text-anchor="middle" font-family="Inter, Arial, sans-serif" font-size="21" fill="#ffffff">Human approval before send</text>
  </g>

  <path d="M334 348 L410 292" stroke="#172126" stroke-width="3" fill="none"/>
  <path d="M334 348 L410 413" stroke="#172126" stroke-width="3" fill="none"/>
  <path d="M680 293 L770 348" stroke="#172126" stroke-width="3" fill="none"/>
  <path d="M680 413 L770 348" stroke="#172126" stroke-width="3" fill="none"/>
  <path d="M548 456 L548 492" stroke="#172126" stroke-width="3" fill="none"/>

  <text x="104" y="592" font-family="Inter, Arial, sans-serif" font-size="20" fill="#46545a">Synthetic SQLite data. Server-side PII masking. Draft-only communications.</text>
</svg>
